# AST/ASF file generated using VICON BodyLanguage
# -----------------------------------------------
:version 1.10
:name VICON
:units
  mass 1.0
  length 0.45
  angle deg
:documentation
   .ast/.asf automatically generated from VICON data using
   VICON BodyBuilder and BodyLanguage model FoxedUp or BRILLIANT.MOD
:root
   order TX TY TZ RX RY RZ
   axis XYZ
   position 0 0 0  
   orientation 0 0 0 
:bonedata
  begin
     id 1 
     name lhipjoint
     direction 0.621036 -0.695554 0.361275 
     length 2.46325 
     axis 0 0 0  XYZ
  end
  begin
     id 2 
     name lfemur
     direction 0.34202 -0.939693 0  
     length 6.54784  
     axis 0 0 20  XYZ
    dof rx ry rz
    limits (-160.0 20.0)
           (-70.0 70.0)
           (-60.0 70.0)
  end
  begin
     id 3 
     name ltibia
     direction 0.34202 -0.939693 0   
     length 7.84737   
     axis 0 0 20   XYZ
    dof rx
    limits (-10.0 170.0)
  end
  begin
     id 4 
     name lfoot
     direction 0.0790693 -0.217241 0.97291   
     length 2.59747   
     axis -90 7.62852e-016 20   XYZ
    dof rx rz
    limits (-45.0 90.0)
           (-70.0 20.0)
  end
  begin
     id 5 
     name ltoes
     direction 1.53572e-011 -4.21898e-011 1   
     length 1.29919   
     axis -90 7.62852e-016 20   XYZ
    dof rx
    limits (-90.0 20.0)
  end
  begin
     id 6 
     name rhipjoint
     direction -0.602353 -0.708375 0.367935   
     length 2.41867  
     axis 0 0 0  XYZ 
  end
  begin
     id 7 
     name rfemur
     direction -0.34202 -0.939693 0   
     length 6.92065   
     axis 0 0 -20   XYZ
    dof rx ry rz
    limits (-160.0 20.0)
           (-70.0 70.0)
           (-70.0 60.0)
  end
  begin
     id 8 
     name rtibia
     direction -0.34202 -0.939693 0   
     length 7.88883   
     axis 0 0 -20   XYZ
    dof rx
    limits (-10.0 170.0)
 end
 begin
     id 9 
     name rfoot
     direction -0.0768692 -0.211196 0.974416   
     length 2.43714  
     axis -90 -7.62852e-016 -20   XYZ
    dof rx rz
    limits (-45.0 90.0)
           (-20.0 70.0)
  end
  begin
     id 10 
     name rtoes
     direction -1.53575e-011 -4.21933e-011 1   
     length 1.22113   
     axis -90 -7.62852e-016 -20   XYZ
    dof rx
    limits (-90.0 20.0)
  end
  begin
     id 11 
     name lowerback
     direction 0.0197937 0.98943 -0.143655   
     length 2.16931   
     axis 0 0 0   XYZ
    dof rx ry rz
    limits (-20.0 45.0)
           (-30.0 30.0)
           (-30.0 30.0)
  end
  begin
     id 12 
     name upperback
     direction -0.00183968 0.999975 0.00684288   
     length 2.17221   
     axis 0 0 0   XYZ
    dof rx ry rz
    limits (-20.0 45.0)
           (-30.0 30.0)
           (-30.0 30.0)
  end
  begin
     id 13 
     name thorax
     direction -0.00950244 0.997208 0.0740685   
     length 2.22549   
     axis 0 0 0   XYZ
    dof rx ry rz
    limits (-20.0 45.0)
           (-30.0 30.0)
           (-30.0 30.0)
  end
  begin
     id 14 
     name lowerneck
     direction 0.0218238 0.996215 0.0841425   
     length 1.77269   
     axis 0 0 0   XYZ
    dof rx ry rz
    limits (-20.0 45.0)
           (-30.0 30.0)
           (-30.0 30.0)
  end
  begin
     id 15 
     name upperneck
     direction -0.00430652 0.994214 -0.107332   
     length 1.76534   
     axis 0 0 0   XYZ
    dof rx ry rz
    limits (-20.0 45.0)
           (-30.0 30.0)
           (-30.0 30.0)
  end
  begin
     id 16
     name head
     direction -0.00328946 0.998959 -0.0454998  
     length 1.82634  
     axis 0 0 0   XYZ
    dof rx ry rz
    limits (-20.0 45.0)
           (-30.0 30.0)
           (-30.0 30.0)
  end
  begin
     id 17 
     name lclavicle
     direction 0.970962 0.239191 0.00450212  
     length 3.84872  
     axis 0 0 0   XYZ
    dof ry rz
    limits (-20.0 10.0)
           (0.0 20.0)
  end
  begin
     id 18 
     name lhumerus
     direction 1 -4.48966e-011 5.74696e-028   
     length 5.22771   
     axis 180 -30 -90   XYZ
    dof rx ry rz
    limits (-60.0 90.0)
           (-90.0 90.0)
           (-90.0 90.0)
  end
  begin
     id 19
     name lradius
     direction 1 -4.4896e-011 4.25109e-027   
     length 3.45251   
     axis 180 -30 -90   XYZ
    dof rx
    limits (-10.0 170.0)
  end
  begin
     id 20
     name lwrist
     direction 1 -4.48971e-011 1.15382e-027   
     length 1.72626   
     axis -5.52449e-016 90 90   XYZ
    dof ry
    limits (-180.0 0.0)
 end
  begin
     id 21 
     name lhand
     direction 1 -4.49034e-011 2.30765e-027   
     length 0.552119   
     axis -1.47248e-015 90 90   XYZ
    dof rx rz
    limits (-90.0 90.0)
           (-45.0 45.0)
  end
  begin
     id 22 
     name lfingers
     direction 1 -4.48951e-011 4.61529e-027   
     length 0.445133   
     axis -2.94495e-015 90 90   XYZ
    dof rx
    limits (0.0 90.0)
  end
  begin
     id 23
     name lthumb
     direction 0.707107 -6.34991e-011 0.707107   
     length 0.639124   
     axis -90 45 2.85299e-015   XYZ
    dof rx rz
    limits (-45.0 45.0)
           (-45.0 45.0)
  end
  begin
     id 24 
     name rclavicle
     direction -0.97424 0.222511 -0.0366699   
     length 3.73439  
     axis 0 0 0   XYZ 
    dof ry rz
    limits (-10.0 20.0)
           (-20.0 0.0)
  end
  begin
     id 25 
     name rhumerus
     direction -1 -4.48956e-011 -4.97258e-028  
     length 5.2398   
     axis 180 30 90   XYZ
    dof rx ry rz
    limits (-90.0 60.0)
           (-90.0 90.0)
           (-90.0 90.0)
  end
  begin
     id 26 
     name rradius
     direction -1 -4.4897e-011 -1.72611e-027   
     length 3.48042   
     axis 180 30 90   XYZ
    dof rx
    limits (-10.0 170.0)
  end
  begin
     id 27 
     name rwrist
     direction -1 -4.48976e-011 1.15382e-027   
     length 1.74021   
     axis -5.52449e-016 -90 -90   XYZ
    dof ry
    limits (-180.0 0.0)
  end
  begin
     id 28
     name rhand
     direction -1 -4.48963e-011 2.30765e-027   
     length 0.618713   
     axis -1.47248e-015 -90 -90   XYZ
    dof rx rz
    limits (-90.0 90.0)
           (-45.0 45.0)
  end
  begin
     id 29
     name rfingers
     direction -1 -4.4888e-011 4.61529e-027   
     length 0.498823   
     axis -2.94495e-015 -90 -90   XYZ
    dof rx
    limits (0.0 90.0)
  end
  begin
     id 30
     name rthumb
     direction -0.707107 -6.34968e-011 0.707107   
     length 0.716213   
     axis -90 -45 -2.85299e-015   XYZ
    dof rx rz
    limits (-45.0 45.0)
           (-45.0 45.0)
  end
:hierarchy
  begin
    root lhipjoint rhipjoint lowerback
    lhipjoint lfemur
    lfemur ltibia
    ltibia lfoot
    lfoot ltoes
    rhipjoint rfemur
    rfemur rtibia
    rtibia rfoot
    rfoot rtoes
    lowerback upperback
    upperback thorax
    thorax lowerneck lclavicle rclavicle
    lowerneck upperneck
    upperneck head
    lclavicle lhumerus
    lhumerus lradius
    lradius lwrist
    lwrist lhand lthumb
    lhand lfingers
    rclavicle rhumerus
    rhumerus rradius
    rradius rwrist
    rwrist rhand rthumb
    rhand rfingers
  end

#!OML:ASF G:\JayActor3\Patient Classification 1\Patient 1\Session 5\male.ASF
:FULLY-SPECIFIED
:DEGREES
173
root 45.9504 17.7318 -5.39285 -26.3014 78.0007 -52.3566
lowerback 17.2913 -1.20249 6.05648
upperback 5.35226 -0.240801 1.00273
thorax -3.97265 -0.0133368 -2.32636
lowerneck 3.22409 1.69271 3.54614
upperneck -20.7163 3.01508 -0.811962
head -6.7743 1.46832 -1.08475
rclavicle -6.36111e-015 4.92986e-014
rhumerus -28.3467 -1.97556 -89.1493
rradius 30.8459
rwrist 0.469212
rhand -22.2289 -9.21894
rfingers 7.12502
rthumb 4.1877 -39.1575
lclavicle -6.36111e-015 4.92986e-014
lhumerus -29.2555 4.93494 82.7629
lradius 36.1897
lwrist 25.4293
lhand -20.2296 12.1075
lfingers 7.12502
lthumb 6.11819 41.9992
rfemur -35.4527 13.292 19.351
rtibia 31.9052
rfoot -0.0888019 -5.02943
rtoes -9.47984
lfemur -37.9563 19.0033 -21.8156
ltibia 19.3259
lfoot 11.5194 -8.11543
ltoes -24.8705
174
root 45.9242 17.7367 -5.39075 -27.0548 77.8881 -53.2611
lowerback 17.3168 -1.18597 6.25071
upperback 5.31716 -0.182039 1.03539
thorax -4.01804 0.0130981 -2.41325
lowerneck 3.22405 1.6711 3.54988
upperneck -20.7468 2.99094 -0.79429
head -6.78506 1.45525 -1.07865
rclavicle 7.15625e-015 4.77083e-015
rhumerus -28.4249 -1.99527 -89.1725
rradius 30.8329
rwrist 0.531164
rhand -22.2284 -9.26099
rfingers 7.12502
rthumb 4.1882 -39.1996
lclavicle 7.15625e-015 4.77083e-015
lhumerus -29.2653 4.9644 82.684
lradius 36.0507
lwrist 25.3776
lhand -20.2568 12.0909
lfingers 7.12502
lthumb 6.09194 41.9833
rfemur -35.0158 13.4937 19.5512
rtibia 31.9015
rfoot 0.0294023 -5.10993
rtoes -9.70561
lfemur -38.0881 18.9083 -21.58
ltibia 19.1323
lfoot 11.6541 -7.98685
ltoes -24.813
175
root 45.8977 17.7408 -5.38867 -27.7802 77.7437 -54.1385
lowerback 17.341 -1.16457 6.46224
upperback 5.2821 -0.113788 1.06959
thorax -4.06148 0.0440842 -2.51025
lowerneck 3.21886 1.65647 3.55177
upperneck -20.7619 2.97257 -0.790728
head -6.78948 1.44625 -1.07681
rclavicle -3.73715e-014 -1.74931e-014
rhumerus -28.4936 -1.98482 -89.1996
rradius 30.8233
rwrist 0.580778
rhand -22.2144 -9.30818
rfingers 7.12502
rthumb 4.20174 -39.2465
lclavicle -3.73715e-014 -1.74931e-014
lhumerus -29.2796 5.01563 82.6052
lradius 35.9017
lwrist 25.3046
lhand -20.2846 12.0732
lfingers 7.12502
lthumb 6.06503 41.9664
rfemur -34.5804 13.6746 19.7771
rtibia 31.9028
rfoot 0.226082 -5.14429
rtoes -9.92304
lfemur -38.2098 18.7901 -21.2937
ltibia 18.9469
lfoot 11.7656 -7.83752
ltoes -24.8038
176
root 45.8708 17.7444 -5.38654 -28.4182 77.5633 -54.9283
lowerback 17.3627 -1.13759 6.6757
upperback 5.24865 -0.0380159 1.10361
thorax -4.10069 0.0787468 -2.61008
lowerneck 3.20301 1.65256 3.55661
upperneck -20.7593 2.96432 -0.806836
head -6.78565 1.44359 -1.08203
rclavicle 2.54444e-014 4.13472e-014
rhumerus -28.5421 -1.9422 -89.2326
rradius 30.8066
rwrist 0.619093
rhand -22.1713 -9.35804
rfingers 7.12502
rthumb 4.24333 -39.2955
lclavicle 2.54444e-014 4.13472e-014
lhumerus -29.3034 5.09242 82.5223
lradius 35.7484
lwrist 25.2238
lhand -20.3122 12.0675
lfingers 7.12502
lthumb 6.03844 41.9615
rfemur -34.1506 13.846 20.0169
rtibia 31.9165
rfoot 0.485673 -5.13219
rtoes -10.124
lfemur -38.3222 18.6553 -20.9665
ltibia 18.7714
lfoot 11.8581 -7.64606
ltoes -24.8238
177
root 45.8434 17.7478 -5.3842 -28.9136 77.3543 -55.5743
lowerback 17.3829 -1.10322 6.87345
upperback 5.21707 0.0445438 1.13612
thorax -4.13608 0.11673 -2.70409
lowerneck 3.17734 1.65803 3.56467
upperneck -20.7452 2.96487 -0.841897
head -6.77575 1.44655 -1.09413
rclavicle -3.10104e-014 -5.56597e-015
rhumerus -28.5686 -1.88665 -89.2629
rradius 30.7812
rwrist 0.658219
rhand -22.0934 -9.39373
rfingers 7.12502
rthumb 4.3186 -39.3297
lclavicle -3.10104e-014 -5.56597e-015
lhumerus -29.34 5.18949 82.4385
lradius 35.5962
lwrist 25.1463
lhand -20.3335 12.069
lfingers 7.12502
lthumb 6.01786 41.9635
rfemur -33.7314 14.0248 20.2489
rtibia 31.9453
rfoot 0.786252 -5.09401
rtoes -10.3192
lfemur -38.4247 18.5041 -20.6151
ltibia 18.6003
lfoot 11.942 -7.40235
ltoes -24.8608
178
root 45.8152 17.7513 -5.38138 -29.198 77.1246 -56.004
lowerback 17.4081 -1.06018 7.03109
upperback 5.18584 0.131595 1.16276
thorax -4.17319 0.1567 -2.78267
lowerneck 3.15358 1.67534 3.57234
upperneck -20.7289 2.98015 -0.885311
head -6.76497 1.45734 -1.10978
rclavicle 2.54444e-014 -7.95139e-015
rhumerus -28.573 -1.82946 -89.2896
rradius 30.7406
rwrist 0.704544
rhand -21.9897 -9.40672
rfingers 7.12502
rthumb 4.4187 -39.3406
lclavicle 2.54444e-014 -7.95139e-015
lhumerus -29.3963 5.30289 82.3507
lradius 35.4492
lwrist 25.0775
lhand -20.3407 12.0854
lfingers 7.12502
lthumb 6.01087 41.9802
rfemur -33.3265 14.2281 20.4487
rtibia 31.987
rfoot 1.10787 -5.05107
rtoes -10.5069
lfemur -38.5085 18.3312 -20.2548
ltibia 18.4251
lfoot 12.0222 -7.0937
ltoes -24.9136
179
root 45.7861 17.7551 -5.37783 -29.2646 76.8856 -56.2094
lowerback 17.4358 -1.00958 7.13975
upperback 5.1564 0.219647 1.18047
thorax -4.20964 0.197104 -2.84338
lowerneck 3.13583 1.70196 3.58488
upperneck -20.7192 3.00817 -0.934828
head -6.75685 1.4744 -1.12921
rclavicle 1.59028e-015 -4.69132e-014
rhumerus -28.5542 -1.78858 -89.3092
rradius 30.6729
rwrist 0.773607
rhand -21.916 -9.33317
rfingers 7.12502
rthumb 4.48986 -39.2656
lclavicle 1.59028e-015 -4.69132e-014
lhumerus -29.4697 5.42527 82.2576
lradius 35.3077
lwrist 25.0247
lhand -20.3532 12.0959
lfingers 7.12502
lthumb 5.99886 41.991
rfemur -32.9364 14.4641 20.603
rtibia 32.0374
rfoot 1.42036 -5.01855
rtoes -10.6839
lfemur -38.5672 18.1419 -19.9016
ltibia 18.2305
lfoot 12.1051 -6.73091
ltoes -24.9679
180
root 45.7564 17.7593 -5.37342 -29.1636 76.6425 -56.2345
lowerback 17.4697 -0.954993 7.20749
upperback 5.13021 0.305736 1.18857
thorax -4.24624 0.236594 -2.89096
lowerneck 3.134 1.7349 3.5992
upperneck -20.7263 3.04733 -0.979735
head -6.75679 1.49627 -1.14866
rclavicle -1.59028e-015 9.54166e-015
rhumerus -28.5254 -1.73699 -89.3441
rradius 30.5995
rwrist 0.90524
rhand -21.9715 -9.32854
rfingers 7.12502
rthumb 4.43632 -39.2621
lclavicle -1.59028e-015 9.54166e-015
lhumerus -29.5568 5.54576 82.1595
lradius 35.1676
lwrist 24.9857
lhand -20.3648 12.1018
lfingers 7.12502
lthumb 5.98765 41.9972
rfemur -32.5537 14.7376 20.7145
rtibia 32.0899
rfoot 1.69978 -5.0063
rtoes -10.8542
lfemur -38.5863 17.937 -19.5528
ltibia 18.0038
lfoot 12.1945 -6.32594
ltoes -25.0254
181
root 45.7257 17.7638 -5.36795 -28.922 76.4055 -56.1062
lowerback 17.5132 -0.898569 7.23389
upperback 5.10577 0.387277 1.18697
thorax -4.28686 0.273773 -2.92476
lowerneck 3.15452 1.77046 3.61078
upperneck -20.7587 3.0936 -1.01472
head -6.76891 1.52086 -1.16566
rclavicle 1.59028e-015 -1.59028e-015
rhumerus -28.4907 -1.6892 -89.3898
rradius 30.5227
rwrist 1.09125
rhand -22.1523 -9.38221
rfingers 7.12502
rthumb 4.26173 -39.3193
lclavicle 1.59028e-015 -1.59028e-015
lhumerus -29.6536 5.65309 82.0592
lradius 35.0243
lwrist 24.9588
lhand -20.3884 12.0941
lfingers 7.12502
lthumb 5.96484 41.9901
rfemur -32.1808 15.0483 20.7807
rtibia 32.137
rfoot 1.93503 -5.02577
rtoes -10.9891
lfemur -38.5625 17.7099 -19.2115
ltibia 17.7376
lfoot 12.2942 -5.88825
ltoes -25.1013
182
root 45.6941 17.7686 -5.36137 -28.6039 76.1773 -55.8923
lowerback 17.5636 -0.843429 7.23542
upperback 5.08281 0.46284 1.17656
thorax -4.33032 0.307988 -2.95283
lowerneck 3.1948 1.80799 3.62416
upperneck -20.8136 3.14579 -1.04281
head -6.79171 1.5475 -1.18181
rclavicle 1.19271e-014 -1.74931e-014
rhumerus -28.449 -1.67221 -89.436
rradius 30.4596
rwrist 1.26188
rhand -22.3409 -9.48301
rfingers 7.12502
rthumb 4.07959 -39.4237
lclavicle 1.19271e-014 -1.74931e-014
lhumerus -29.7508 5.73897 81.9573
lradius 34.8721
lwrist 24.9358
lhand -20.4132 12.0883
lfingers 7.12502
lthumb 5.94094 41.985
rfemur -31.8207 15.3878 20.8147
rtibia 32.1713
rfoot 2.12746 -5.08334
rtoes -11.1113
lfemur -38.5029 17.4605 -18.8714
ltibia 17.4329
lfoot 12.408 -5.4274
ltoes -25.1941
183
root 45.6612 17.7735 -5.35378 -28.2876 75.9597 -55.6745
lowerback 17.6207 -0.793061 7.23152
upperback 5.06 0.531663 1.16255
thorax -4.37787 0.338795 -2.98046
lowerneck 3.25306 1.84661 3.63746
upperneck -20.8873 3.20189 -1.0659
head -6.8238 1.57553 -1.19723
rclavicle 2.06736e-014 6.59965e-014
rhumerus -28.4028 -1.68657 -89.4788
rradius 30.4172
rwrist 1.39693
rhand -22.5051 -9.64402
rfingers 7.12502
rthumb 3.92105 -39.5877
lclavicle 2.06736e-014 6.59965e-014
lhumerus -29.8435 5.80739 81.8572
lradius 34.7089
lwrist 24.905
lhand -20.4352 12.0759
lfingers 7.12502
lthumb 5.91969 41.9733
rfemur -31.4751 15.7364 20.8383
rtibia 32.1879
rfoot 2.28751 -5.17709
rtoes -11.2023
lfemur -38.4185 17.1905 -18.5236
ltibia 17.0971
lfoot 12.5397 -4.9602
ltoes -25.3131
